<svg width="1920" height="693" viewBox="0 0 1920 693" fill="none" xmlns="http://www.w3.org/2000/svg">
<rect width="2363" height="381" transform="translate(-200 312)" fill="white"/>
<path d="M432.595 357.376C386.442 407.054 335.675 682.83 255.37 682.83H897.81C817.505 682.83 817.505 611.295 737.2 611.295C656.895 611.295 713.201 314.738 561.821 312C481.516 312 454.133 324.126 432.595 357.376Z" fill="#5FC5FF"/>
<path d="M36.3 521.667C-82.1577 521.667 -81.5423 682.83 -200 682.83H747.661C629.204 682.83 629.204 607.775 510.746 607.775C392.288 607.775 362.751 431.698 244.293 431.698C125.836 431.698 154.758 521.667 36.3 521.667Z" fill="#00A3FF"/>
<path d="M794.429 442.651C709.355 442.651 717.047 682.83 631.973 682.83H1312.57C1227.49 682.83 1227.49 554.944 1142.42 554.944C1057.34 554.944 1054.88 356.594 969.808 356.594C884.734 356.594 899.657 442.651 794.429 442.651Z" fill="url(#paint0_linear)" fill-opacity="0.8"/>
<path d="M1287.25 624.832C1172.12 624.832 1172.12 683 1057 683H1978C1862.88 683 1862.88 397.234 1747.75 397.234C1632.62 397.234 1632.62 319 1517.5 319C1402.38 319 1402.38 624.832 1287.25 624.832Z" fill="url(#paint1_linear)" fill-opacity="0.8"/>
<path d="M1144.25 520.212C1095.12 520.212 1095.12 683 1046 683H1439C1389.88 683 1389.88 508 1340.75 508C1291.62 508 1291.62 543.562 1242.5 543.562C1193.38 543.562 1193.38 520.212 1144.25 520.212Z" fill="#FF0300" fill-opacity="0.8"/>
<rect x="221" y="44.239" width="43" height="8" rx="4" transform="rotate(-60 221 44.239)" fill="#FF7C02"/>
<rect x="260.5" y="48.239" width="43" height="8" rx="4" transform="rotate(-120 260.5 48.239)" fill="#FF7C02"/>
<path d="M240 19C240 16.7908 241.791 15 244 15C246.209 15 248 16.7909 248 19V683H240V19Z" fill="#FF7C02"/>
<rect x="1919" y="675" width="8.00008" height="1919" transform="rotate(90 1919 675)" fill="#FF7C02"/>
<defs>
<linearGradient id="paint0_linear" x1="977.193" y1="358.941" x2="975.203" y2="682.848" gradientUnits="userSpaceOnUse">
<stop offset="0.0532488" stop-color="#FF0000"/>
<stop offset="1" stop-color="#00A3FF"/>
<stop offset="1" stop-color="#00A3FF"/>
</linearGradient>
<linearGradient id="paint1_linear" x1="1517.5" y1="319" x2="1517.5" y2="683" gradientUnits="userSpaceOnUse">
<stop offset="0.163747" stop-color="#00A3FF"/>
<stop offset="0.384467" stop-color="#00A3FF"/>
<stop offset="1" stop-color="#FF0000"/>
</linearGradient>
</defs>
</svg>
