<svg width="1920" height="381" viewBox="0 0 1920 381" fill="none" xmlns="http://www.w3.org/2000/svg">
<rect width="2363" height="381" transform="translate(-200)" fill="white"/>
<path d="M432.595 45.3758C386.442 95.0544 335.675 370.83 255.37 370.83H897.81C817.505 370.83 817.505 299.295 737.2 299.295C656.895 299.295 713.201 2.73819 561.821 0C481.516 0 454.133 12.1263 432.595 45.3758Z" fill="#5FC5FF"/>
<path d="M36.3 209.667C-82.1577 209.667 -81.5423 370.83 -200 370.83H747.661C629.204 370.83 629.204 295.775 510.746 295.775C392.288 295.775 362.751 119.698 244.293 119.698C125.836 119.698 154.758 209.667 36.3 209.667Z" fill="#00A3FF"/>
<path d="M794.429 130.651C709.355 130.651 717.047 370.83 631.973 370.83H1312.57C1227.49 370.83 1227.49 242.944 1142.42 242.944C1057.34 242.944 1054.88 44.5935 969.808 44.5935C884.734 44.5935 899.657 130.651 794.429 130.651Z" fill="url(#paint0_linear)" fill-opacity="0.8"/>
<path d="M1287.25 312.832C1172.12 312.832 1172.12 371 1057 371H1978C1862.88 371 1862.88 85.2335 1747.75 85.2335C1632.62 85.2335 1632.62 7 1517.5 7C1402.38 7 1402.38 312.832 1287.25 312.832Z" fill="url(#paint1_linear)" fill-opacity="0.8"/>
<path d="M1144.25 208.212C1095.12 208.212 1095.12 371 1046 371H1439C1389.88 371 1389.88 196 1340.75 196C1291.62 196 1291.62 231.562 1242.5 231.562C1193.38 231.562 1193.38 208.212 1144.25 208.212Z" fill="#FF0300" fill-opacity="0.8"/>
<defs>
<linearGradient id="paint0_linear" x1="977.193" y1="46.9405" x2="975.203" y2="370.848" gradientUnits="userSpaceOnUse">
<stop offset="0.0532488" stop-color="#FF0000"/>
<stop offset="1" stop-color="#00A3FF"/>
<stop offset="1" stop-color="#00A3FF"/>
</linearGradient>
<linearGradient id="paint1_linear" x1="1517.5" y1="7" x2="1517.5" y2="371" gradientUnits="userSpaceOnUse">
<stop offset="0.163747" stop-color="#00A3FF"/>
<stop offset="0.384467" stop-color="#00A3FF"/>
<stop offset="1" stop-color="#FF0000"/>
</linearGradient>
</defs>
</svg>
