<svg width="49" height="48" viewBox="0 0 49 48" fill="none" xmlns="http://www.w3.org/2000/svg">
<rect x="1.55701" y="1" width="46.443" height="45.9999" rx="6" stroke="#838383" stroke-width="2"/>
<path d="M21.4437 13.9131C16.4995 13.9131 12.4922 17.2229 12.4922 21.3044C12.4922 23.6578 13.832 25.7451 15.9102 27.0962L14.7301 29.4348L17.9452 28.0704C18.6344 28.3128 19.3505 28.5124 20.1159 28.6055C20.0114 28.1546 19.9518 27.6919 19.9518 27.2174C19.9518 23.1419 23.9665 19.8261 28.9032 19.8261C29.3552 19.8261 29.7968 19.8631 30.2325 19.9163C29.4448 16.4986 25.812 13.9131 21.4437 13.9131ZM18.4599 19.4566C17.8422 19.4566 17.3409 18.9599 17.3409 18.3479C17.3409 17.7359 17.8422 17.2392 18.4599 17.2392C19.0775 17.2392 19.5788 17.7359 19.5788 18.3479C19.5788 18.9599 19.0775 19.4566 18.4599 19.4566ZM24.4275 19.4566C23.8098 19.4566 23.3086 18.9599 23.3086 18.3479C23.3086 17.7359 23.8098 17.2392 24.4275 17.2392C25.0451 17.2392 25.5464 17.7359 25.5464 18.3479C25.5464 18.9599 25.0451 19.4566 24.4275 19.4566Z" fill="#838383"/>
<path d="M36.3627 27.2172C36.3627 23.9518 33.0223 21.3042 28.9032 21.3042C24.784 21.3042 21.4437 23.9518 21.4437 27.2172C21.4437 30.4827 24.784 33.1303 28.9032 33.1303C29.5805 33.1303 30.225 33.0357 30.8501 32.9011L34.8708 34.6085L33.4803 31.8545C35.2229 30.7724 36.3627 29.1079 36.3627 27.2172ZM26.6653 26.8477C26.0477 26.8477 25.5464 26.351 25.5464 25.739C25.5464 25.127 26.0477 24.6303 26.6653 24.6303C27.283 24.6303 27.7843 25.127 27.7843 25.739C27.7843 26.351 27.283 26.8477 26.6653 26.8477ZM31.141 26.8477C30.5234 26.8477 30.0221 26.351 30.0221 25.739C30.0221 25.127 30.5234 24.6303 31.141 24.6303C31.7587 24.6303 32.26 25.127 32.26 25.739C32.26 26.351 31.7587 26.8477 31.141 26.8477Z" fill="#838383"/>
</svg>
