<svg width="49" height="48" viewBox="0 0 49 48" fill="none" xmlns="http://www.w3.org/2000/svg">
<rect x="1.55699" y="1" width="46.443" height="45.9999" rx="6" stroke="#00A3FF" stroke-width="2"/>
<path d="M21.4437 13.913C16.4995 13.913 12.4922 17.2228 12.4922 21.3043C12.4922 23.6576 13.832 25.7449 15.9102 27.0961L14.7301 29.4347L17.9451 28.0702C18.6344 28.3127 19.3505 28.5122 20.1159 28.6054C20.0114 28.1545 19.9518 27.6918 19.9518 27.2173C19.9518 23.1417 23.9665 19.826 28.9032 19.826C29.3552 19.826 29.7968 19.863 30.2325 19.9162C29.4447 16.4984 25.812 13.913 21.4437 13.913ZM18.4599 19.4564C17.8422 19.4564 17.3409 18.9597 17.3409 18.3477C17.3409 17.7357 17.8422 17.239 18.4599 17.239C19.0775 17.239 19.5788 17.7357 19.5788 18.3477C19.5788 18.9597 19.0775 19.4564 18.4599 19.4564ZM24.4275 19.4564C23.8098 19.4564 23.3085 18.9597 23.3085 18.3477C23.3085 17.7357 23.8098 17.239 24.4275 17.239C25.0451 17.239 25.5464 17.7357 25.5464 18.3477C25.5464 18.9597 25.0451 19.4564 24.4275 19.4564Z" fill="#00A3FF"/>
<path d="M36.3627 27.2172C36.3627 23.9518 33.0223 21.3042 28.9032 21.3042C24.784 21.3042 21.4437 23.9518 21.4437 27.2172C21.4437 30.4827 24.784 33.1303 28.9032 33.1303C29.5805 33.1303 30.225 33.0357 30.8501 32.9011L34.8708 34.6085L33.4803 31.8545C35.2229 30.7724 36.3627 29.1079 36.3627 27.2172ZM26.6653 26.8477C26.0477 26.8477 25.5464 26.351 25.5464 25.739C25.5464 25.127 26.0477 24.6303 26.6653 24.6303C27.283 24.6303 27.7843 25.127 27.7843 25.739C27.7843 26.351 27.283 26.8477 26.6653 26.8477ZM31.141 26.8477C30.5234 26.8477 30.0221 26.351 30.0221 25.739C30.0221 25.127 30.5234 24.6303 31.141 24.6303C31.7587 24.6303 32.26 25.127 32.26 25.739C32.26 26.351 31.7587 26.8477 31.141 26.8477Z" fill="#00A3FF"/>
</svg>
