<svg width="50" height="48" viewBox="0 0 50 48" fill="none" xmlns="http://www.w3.org/2000/svg">
<rect x="1.92746" y="1" width="46.443" height="45.9999" rx="6" stroke="#00A3FF" stroke-width="2"/>
<path d="M22.6088 17.7622C22.6088 18.263 22.6088 20.4986 22.6088 20.4986H20.5855V23.8448H22.6088V33.7883H26.7651V23.845H29.5542C29.5542 23.845 29.8154 22.2406 29.942 20.4863C29.579 20.4863 26.7808 20.4863 26.7808 20.4863C26.7808 20.4863 26.7808 18.5396 26.7808 18.1984C26.7808 17.8565 27.234 17.3965 27.6819 17.3965C28.1289 17.3965 29.0725 17.3965 29.9464 17.3965C29.9464 16.9409 29.9464 15.3668 29.9464 13.913C28.7797 13.913 27.4525 13.913 26.8674 13.913C22.5061 13.9127 22.6088 17.2622 22.6088 17.7622Z" fill="#00A3FF"/>
</svg>
