<svg width="50" height="48" viewBox="0 0 50 48" fill="none" xmlns="http://www.w3.org/2000/svg">
<rect x="1.92749" y="1" width="46.443" height="45.9999" rx="6" stroke="#838383" stroke-width="2"/>
<path d="M22.6088 17.7623C22.6088 18.2632 22.6088 20.4987 22.6088 20.4987H20.5855V23.8449H22.6088V33.7884H26.7651V23.8452H29.5542C29.5542 23.8452 29.8154 22.2407 29.942 20.4864C29.579 20.4864 26.7809 20.4864 26.7809 20.4864C26.7809 20.4864 26.7809 18.5397 26.7809 18.1985C26.7809 17.8566 27.234 17.3966 27.6819 17.3966C28.129 17.3966 29.0725 17.3966 29.9464 17.3966C29.9464 16.941 29.9464 15.3669 29.9464 13.9131C28.7798 13.9131 27.4525 13.9131 26.8675 13.9131C22.5061 13.9129 22.6088 17.2623 22.6088 17.7623Z" fill="#838383"/>
</svg>
