<svg width="49" height="48" viewBox="0 0 49 48" fill="none" xmlns="http://www.w3.org/2000/svg">
<rect x="1" y="1" width="46.443" height="45.9999" rx="6" stroke="#838383" stroke-width="2"/>
<path d="M37.2098 17.3661H35.7765C35.4032 17.3661 34.4266 17.7678 34.4266 18.1098V30.5292C34.4266 30.872 35.4032 31.1531 35.7765 31.1531H37.2098V33.9105H27.9324V31.1531H29.7883V18.2848H29.4654L24.9994 33.9104H21.5417L17.1335 18.2848H16.7996V31.153H18.6548V33.9104H11.2332V31.153H12.2625C12.6666 31.153 13.0883 30.872 13.0883 30.5291V18.1098C13.0883 17.7678 12.6666 17.3661 12.2625 17.3661H11.2332V14.6084H20.8513L23.9918 25.638H24.0763L27.2477 14.6084H37.2098V17.3661Z" fill="#838383"/>
</svg>
