<svg width="49" height="48" viewBox="0 0 49 48" fill="none" xmlns="http://www.w3.org/2000/svg">
<rect x="1" y="1.00012" width="46.443" height="45.9999" rx="6" stroke="#00A3FF" stroke-width="2"/>
<path d="M37.2098 17.3665H35.7765C35.4032 17.3665 34.4266 17.7682 34.4266 18.1102V30.5295C34.4266 30.8724 35.4032 31.1535 35.7765 31.1535H37.2098V33.9108H27.9324V31.1535H29.7883V18.2851H29.4654L24.9994 33.9108H21.5417L17.1335 18.2851H16.7996V31.1534H18.6548V33.9108H11.2332V31.1534H12.2625C12.6666 31.1534 13.0883 30.8724 13.0883 30.5295V18.1102C13.0883 17.7681 12.6666 17.3665 12.2625 17.3665H11.2332V14.6088H20.8513L23.9918 25.6384H24.0763L27.2477 14.6088H37.2098V17.3665Z" fill="#00A3FF"/>
</svg>
