<svg width="49" height="48" viewBox="0 0 49 48" fill="none" xmlns="http://www.w3.org/2000/svg">
<rect x="1.46375" y="1.00012" width="46.443" height="45.9999" rx="6" stroke="#00A3FF" stroke-width="2"/>
<path d="M13.5103 23.5864L18.8487 25.5791L20.915 32.2249C21.0473 32.6506 21.5677 32.8079 21.9131 32.5255L24.8889 30.0993C25.2008 29.8452 25.6451 29.8325 25.9711 30.0691L31.3383 33.9662C31.7078 34.2348 32.2314 34.0323 32.324 33.5857L36.2558 14.6715C36.357 14.1837 35.8777 13.7767 35.4132 13.9564L13.504 22.4091C12.9633 22.6176 12.968 23.3832 13.5103 23.5864ZM20.582 24.5183L31.0154 18.0918C31.2029 17.9766 31.3958 18.2302 31.2348 18.3796L22.6243 26.3842C22.3216 26.666 22.1264 27.0431 22.0711 27.4523L21.7778 29.6262C21.7389 29.9164 21.3312 29.9453 21.2511 29.6643L20.1231 25.7002C19.9939 25.2481 20.1822 24.7652 20.582 24.5183Z" fill="#00A3FF"/>
</svg>
