<svg width="49" height="48" viewBox="0 0 49 48" fill="none" xmlns="http://www.w3.org/2000/svg">
<rect x="1.39119" y="1" width="46.443" height="45.9999" rx="6" stroke="#00A3FF" stroke-width="2"/>
<path d="M29.3933 29.0425H24.274C23.5623 29.0425 22.9572 28.8004 22.46 28.314C21.9604 27.8271 21.7135 27.2387 21.7135 26.5436V24.7719H29.0081C29.666 24.7719 30.2327 24.5421 30.7034 24.0855C31.1739 23.6251 31.4102 23.0748 31.4102 22.4344C31.4102 21.7918 31.1739 21.2421 30.702 20.7833C30.2297 20.3256 29.6612 20.096 29.0005 20.096H21.7133V16.4356C21.7133 15.743 21.4592 15.1501 20.9548 14.656C20.4528 14.1611 19.8451 13.913 19.1397 13.913C18.4144 13.913 17.7968 14.1575 17.2945 14.6415C16.7904 15.127 16.5388 15.725 16.5388 16.4378V26.5447C16.5388 28.6235 17.2945 30.3995 18.8066 31.8735C20.3197 33.3505 22.1439 34.0868 24.2768 34.0868H29.3952C30.1056 34.0868 30.7159 33.8387 31.2232 33.344C31.7311 32.8515 31.9845 32.2571 31.9845 31.5651C31.9845 30.8729 31.7311 30.2798 31.2232 29.7851C30.7156 29.2915 30.1047 29.0425 29.3933 29.0425Z" fill="#00A3FF"/>
</svg>
