<svg width="49" height="48" viewBox="0 0 49 48" fill="none" xmlns="http://www.w3.org/2000/svg">
<rect x="1.39117" y="1" width="46.443" height="45.9999" rx="6" stroke="#838383" stroke-width="2"/>
<path d="M29.3933 29.0426H24.274C23.5623 29.0426 22.9572 28.8005 22.4599 28.3141C21.9604 27.8272 21.7135 27.2388 21.7135 26.5437V24.772H29.0081C29.666 24.772 30.2326 24.5423 30.7034 24.0857C31.1739 23.6252 31.4102 23.0749 31.4102 22.4345C31.4102 21.7919 31.1739 21.2423 30.702 20.7834C30.2296 20.3257 29.6612 20.0962 29.0005 20.0962H21.7132V16.4357C21.7132 15.7431 21.4592 15.1502 20.9548 14.6562C20.4527 14.1612 19.845 13.9131 19.1396 13.9131C18.4144 13.9131 17.7968 14.1576 17.2945 14.6416C16.7903 15.1271 16.5388 15.7251 16.5388 16.438V26.5448C16.5388 28.6237 17.2945 30.3996 18.8065 31.8737C20.3197 33.3506 22.1439 34.087 24.2767 34.087H29.3951C30.1056 34.087 30.7158 33.8388 31.2232 33.3441C31.7311 32.8517 31.9844 32.2572 31.9844 31.5652C31.9844 30.873 31.7311 30.2799 31.2232 29.7852C30.7156 29.2916 30.1047 29.0426 29.3933 29.0426Z" fill="#838383"/>
</svg>
